<?xml version="1.0" standalone="no"?>
<!DOCTYPE svg PUBLIC "-//W3C//DTD SVG 20010904//EN"
 "http://www.w3.org/TR/2001/REC-SVG-20010904/DTD/svg10.dtd">
<svg version="1.0" xmlns="http://www.w3.org/2000/svg"
 width="512.000000pt" height="512.000000pt" viewBox="0 0 512.000000 512.000000"
 preserveAspectRatio="xMidYMid meet">

<g transform="translate(0.000000,512.000000) scale(0.100000,-0.100000)" stroke="none">
<path d="M1450 4396 c-673 -250 -1094 -410 -1107 -424 -28 -26 -30 -72 -5
-100 11 -14 202 -89 557 -221 l540 -199 6 -289 c7 -316 15 -372 87 -556 29
-75 30 -79 14 -110 -20 -39 -23 -172 -5 -232 20 -64 74 -146 121 -182 23 -17
69 -42 102 -54 57 -21 61 -25 99 -93 46 -82 105 -156 173 -216 l48 -42 0 -118
0 -118 -347 -4 c-389 -5 -405 -7 -558 -86 -96 -50 -237 -191 -287 -287 -74
-143 -81 -182 -86 -452 l-4 -242 26 -26 c33 -33 79 -33 111 0 25 24 25 25 25
227 0 137 5 225 15 271 34 161 147 304 297 376 96 46 167 61 287 61 l86 0 320
-320 c294 -293 324 -320 354 -320 29 0 48 13 137 102 l104 102 104 -102 c89
-89 108 -102 137 -102 30 0 60 27 354 320 l320 320 86 0 c120 0 191 -15 287
-61 134 -65 222 -164 280 -318 24 -62 26 -82 31 -304 6 -236 6 -239 30 -258
32 -26 77 -24 106 6 25 24 25 25 25 229 0 224 -11 310 -54 416 -79 194 -246
349 -451 417 -80 27 -82 27 -427 31 l-348 4 0 118 0 118 71 69 c69 66 164 196
175 239 4 15 21 26 57 37 159 50 249 177 251 352 1 58 -4 92 -17 121 -18 40
-18 42 1 80 32 64 72 202 88 304 9 62 14 177 14 332 l0 236 68 26 c37 14 145
54 240 89 l172 65 0 -527 0 -527 -80 -199 c-44 -110 -80 -210 -80 -223 0 -12
11 -34 25 -47 24 -25 26 -25 215 -25 189 0 191 0 215 25 14 13 25 35 25 47 0
13 -36 113 -80 223 l-80 199 0 556 0 557 226 83 c150 56 230 90 240 104 19 28
18 69 -3 95 -19 22 -2191 832 -2228 830 -11 0 -508 -182 -1105 -403z m1915
-59 l790 -293 0 -124 0 -124 -235 -87 -235 -87 -5 167 c-3 91 -9 172 -14 180
-13 19 -173 93 -296 136 -409 142 -868 172 -1302 85 -249 -50 -589 -176 -617
-228 -7 -13 -11 -84 -11 -181 l0 -160 -92 34 c-335 122 -694 257 -700 263 -7
7 1885 711 1912 712 8 0 371 -132 805 -293z m-470 -281 c194 -30 410 -92 568
-163 l57 -26 0 -233 c0 -129 -2 -234 -4 -234 -2 0 -34 13 -72 28 -259 107
-500 157 -804 169 -359 13 -664 -44 -1022 -192 -17 -7 -18 8 -18 228 l0 234
69 31 c102 46 261 97 391 126 101 22 148 29 320 50 73 9 419 -4 515 -18z
m1518 -107 c37 -13 67 -26 67 -29 0 -3 -28 -15 -62 -27 -35 -12 -71 -25 -80
-28 -16 -6 -18 0 -18 55 0 45 3 61 13 58 6 -3 42 -16 80 -29z m-1637 -520
c227 -22 509 -93 688 -173 l59 -26 -6 -168 c-5 -175 -23 -272 -68 -380 -19
-45 -26 -53 -43 -48 -12 3 -27 6 -33 6 -10 0 -13 26 -13 95 0 123 -12 139
-114 148 -186 17 -330 155 -358 343 -5 38 -15 80 -22 94 -24 50 -104 52 -129
2 -8 -15 -17 -55 -20 -89 -16 -159 -135 -297 -293 -338 -45 -12 -121 -15 -337
-15 l-278 0 -24 -25 c-23 -22 -25 -32 -25 -120 0 -69 -3 -95 -12 -95 -7 0 -23
-3 -35 -6 -26 -7 -41 22 -80 161 -20 74 -26 120 -30 262 l-6 173 59 26 c169
75 470 152 674 173 125 12 321 13 446 0z m125 -556 c63 -60 150 -109 230 -130
l69 -17 0 -236 c0 -275 -10 -334 -71 -460 -104 -209 -332 -350 -569 -350 -290
0 -548 202 -620 486 -17 66 -20 111 -20 315 l0 237 258 4 c229 4 263 7 313 25
119 44 209 107 272 190 l39 53 28 -38 c15 -20 47 -56 71 -79z m-1141 -510 c0
-65 3 -129 7 -143 l6 -25 -32 30 c-35 32 -61 105 -61 167 0 41 34 88 65 88 13
0 15 -18 15 -117z m1657 91 c23 -23 25 -31 20 -83 -5 -63 -32 -125 -67 -156
l-23 -20 6 34 c4 18 7 82 7 142 0 121 8 132 57 83z m841 -151 c5 -16 13 -36
17 -45 6 -16 1 -18 -35 -18 -36 0 -41 2 -35 18 4 9 12 29 17 45 5 15 14 27 18
27 4 0 13 -12 18 -27z m-1840 -769 c128 -24 280 -13 401 30 24 9 47 16 52 16
5 0 9 -42 9 -93 l0 -92 -160 -160 -160 -160 -160 160 -160 160 0 96 0 97 53
-20 c28 -11 85 -26 125 -34z m-133 -414 l160 -160 -63 -62 -62 -63 -223 223
-222 222 125 0 125 0 160 -160z m738 -62 l-223 -223 -62 63 -63 62 160 160
160 160 125 0 125 0 -222 -222z"/>
</g>
</svg>
