<?xml version="1.0" standalone="no"?>
<!DOCTYPE svg PUBLIC "-//W3C//DTD SVG 20010904//EN"
 "http://www.w3.org/TR/2001/REC-SVG-20010904/DTD/svg10.dtd">
<svg version="1.0" xmlns="http://www.w3.org/2000/svg"
 width="512.000000pt" height="512.000000pt" viewBox="0 0 512.000000 512.000000"
 preserveAspectRatio="xMidYMid meet">

<g transform="translate(0.000000,512.000000) scale(0.100000,-0.100000)"
fill="#000000" stroke="none">
<path d="M2562 3747 c-18 -8 -103 -170 -338 -639 l-314 -628 310 -620 c171
-341 319 -629 330 -640 19 -19 33 -20 230 -20 211 0 211 0 235 25 14 13 25 35
25 49 0 14 -133 291 -295 616 l-295 590 297 593 c316 635 311 620 261 667 -20
19 -34 20 -222 19 -126 0 -210 -5 -224 -12z"/>
</g>
</svg>
