<?xml version="1.0" standalone="no"?>
<!DOCTYPE svg PUBLIC "-//W3C//DTD SVG 20010904//EN"
 "http://www.w3.org/TR/2001/REC-SVG-20010904/DTD/svg10.dtd">
<svg version="1.0" xmlns="http://www.w3.org/2000/svg"
 width="512.000000pt" height="512.000000pt" viewBox="0 0 512.000000 512.000000"
 preserveAspectRatio="xMidYMid meet">

<g transform="translate(0.000000,512.000000) scale(0.100000,-0.100000)"
fill="#000000" stroke="none">
<path d="M2455 5106 c-123 -30 -248 -130 -297 -237 l-23 -49 -101 0 c-55 0
-127 -5 -159 -11 -128 -24 -257 -118 -311 -228 l-29 -60 -240 -1 c-287 -1
-347 -8 -440 -54 -132 -65 -225 -195 -246 -342 -6 -43 -8 -767 -7 -1914 l3
-1845 21 -56 c61 -158 190 -270 343 -299 74 -14 3108 -14 3182 0 153 29 282
141 343 299 l21 56 3 1845 c1 1147 -1 1871 -7 1914 -21 147 -114 277 -246 342
-93 46 -153 53 -440 54 l-240 1 -29 60 c-54 110 -183 204 -311 228 -32 6 -104
11 -159 11 l-101 0 -23 49 c-82 179 -309 285 -507 237z m170 -306 c48 -23 85
-80 85 -131 0 -47 38 -108 80 -130 30 -17 59 -19 216 -19 169 0 184 -2 224
-23 63 -33 80 -72 80 -184 l0 -93 -750 0 -750 0 0 93 c0 112 17 151 80 184 40
21 55 23 224 23 157 0 186 2 216 19 42 22 80 83 80 130 0 50 37 107 84 131 51
25 79 25 131 0z m-1115 -693 l5 -108 42 -40 42 -39 961 0 961 0 42 39 42 40 5
108 5 108 245 0 c228 0 247 -1 280 -20 19 -12 43 -36 55 -55 20 -35 20 -42 20
-1886 l0 -1851 -29 -37 c-54 -71 65 -66 -1626 -66 -1691 0 -1572 -5 -1626 66
l-29 37 -3 1830 c-1 1251 1 1841 8 1868 6 21 21 50 33 64 42 48 81 55 332 52
l230 -2 5 -108z"/>
<path d="M3545 3444 c-16 -8 -110 -95 -207 -192 l-178 -177 -107 107 c-60 58
-118 111 -130 117 -31 16 -99 14 -133 -4 -56 -29 -88 -96 -75 -163 6 -31 36
-66 188 -220 274 -275 243 -278 580 56 137 136 255 259 263 274 8 15 14 49 14
77 0 39 -6 56 -26 81 -50 59 -126 77 -189 44z"/>
<path d="M1435 3292 c-53 -34 -69 -59 -72 -120 -5 -72 19 -115 80 -142 39 -18
68 -20 365 -20 354 0 366 2 415 59 37 45 44 93 21 149 -11 25 -32 54 -47 66
-27 20 -40 21 -380 24 -329 2 -354 1 -382 -16z"/>
<path d="M3560 2549 c-14 -5 -108 -93 -210 -194 l-185 -185 -100 101 c-140
141 -184 160 -271 118 -31 -15 -48 -32 -63 -63 -26 -53 -26 -86 -2 -134 25
-47 337 -357 374 -371 39 -15 93 -14 125 3 32 18 505 492 521 523 6 12 11 42
11 66 0 102 -105 173 -200 136z"/>
<path d="M1440 2241 c-104 -54 -108 -200 -8 -261 32 -20 48 -20 383 -18 345 3
350 3 382 26 40 28 68 98 59 146 -8 44 -50 94 -93 112 -25 11 -106 14 -360 14
-300 0 -331 -2 -363 -19z"/>
<path d="M2815 1495 c-50 -18 -92 -63 -101 -111 -12 -66 8 -101 125 -219 l110
-109 -114 -116 c-124 -128 -138 -156 -116 -230 14 -47 69 -97 115 -105 63 -12
104 11 221 126 l110 108 115 -113 c99 -98 121 -115 157 -121 55 -9 125 21 153
67 17 26 20 45 17 91 l-3 58 -114 114 -114 115 106 108 c113 114 128 138 128
205 0 68 -46 121 -117 137 -65 15 -100 -4 -221 -123 l-112 -111 -118 117 c-75
74 -127 117 -140 117 -11 0 -26 2 -34 5 -7 2 -31 -2 -53 -10z"/>
<path d="M1426 1181 c-92 -61 -88 -206 7 -259 29 -15 69 -17 378 -17 l346 0
37 29 c87 66 85 183 -4 244 -33 22 -36 22 -384 22 -327 0 -353 -1 -380 -19z"/>
</g>
</svg>
