<?xml version="1.0" standalone="no"?>
<!DOCTYPE svg PUBLIC "-//W3C//DTD SVG 20010904//EN"
 "http://www.w3.org/TR/2001/REC-SVG-20010904/DTD/svg10.dtd">
<svg version="1.0" xmlns="http://www.w3.org/2000/svg"
 width="512.000000pt" height="512.000000pt" viewBox="0 0 512.000000 512.000000"
 preserveAspectRatio="xMidYMid meet">

<g transform="translate(0.000000,512.000000) scale(0.100000,-0.100000)"
fill="#000000" stroke="none">
<path d="M610 5105 c-304 -65 -532 -294 -594 -597 -14 -67 -16 -198 -16 -1008
0 -810 2 -941 16 -1008 51 -249 219 -456 447 -551 84 -34 204 -61 277 -61 l50
0 0 -240 c0 -258 4 -281 51 -306 42 -21 72 -17 115 15 21 16 151 142 289 280
l250 251 193 0 c204 0 239 7 262 49 13 25 13 77 0 102 -24 44 -55 49 -298 49
l-229 0 -39 -29 c-21 -16 -118 -108 -214 -205 l-175 -176 -5 175 c-5 174 -5
175 -33 202 -26 27 -32 28 -165 34 -158 7 -200 17 -297 67 -137 72 -248 219
-280 369 -22 101 -22 1865 0 1966 43 203 219 379 422 422 101 22 3105 22 3206
0 151 -32 297 -143 370 -282 64 -122 67 -150 67 -680 l0 -473 28 -30 c17 -19
40 -33 63 -36 31 -5 42 -1 70 24 l34 30 3 484 c2 412 0 495 -13 563 -62 307
-291 536 -597 599 -69 14 -251 16 -1635 15 -1288 0 -1569 -3 -1623 -14z"/>
<path d="M725 4231 c-64 -27 -81 -110 -32 -158 l27 -28 1238 -3 c916 -2 1244
1 1265 9 37 16 57 46 57 87 0 44 -14 68 -50 87 -25 13 -180 15 -1257 14 -675
0 -1237 -4 -1248 -8z"/>
<path d="M3685 4231 c-64 -27 -81 -110 -32 -158 20 -21 37 -28 67 -28 116 0
130 170 15 190 -16 2 -39 1 -50 -4z"/>
<path d="M725 3591 c-64 -27 -81 -110 -32 -158 l27 -28 1515 -3 1514 -2 33 29
c27 24 33 36 33 71 0 35 -6 47 -33 71 l-32 29 -1503 -1 c-826 0 -1511 -4
-1522 -8z"/>
<path d="M2267 3009 c-47 -28 -47 -22 -47 -971 0 -868 1 -894 20 -925 30 -50
66 -55 364 -51 225 3 266 5 288 20 l25 17 394 -477 c527 -638 503 -610 543
-617 47 -9 83 12 139 84 56 71 110 182 126 261 17 78 15 208 -4 282 -9 34 -50
135 -92 223 -41 88 -77 165 -80 172 -3 9 77 13 334 15 l338 3 57 28 c134 66
209 233 169 374 -8 28 -7 33 12 38 122 32 179 74 227 169 31 61 35 78 35 145
0 62 -5 86 -27 131 -15 30 -33 63 -40 73 -10 14 -10 20 0 35 7 9 25 42 40 72
22 45 27 69 27 131 0 67 -4 84 -35 145 -48 95 -105 137 -227 169 -19 5 -20 10
-12 38 40 141 -35 308 -169 374 l-57 28 -747 3 -747 3 -87 -36 c-88 -35 -103
-35 -104 2 0 6 -12 21 -26 32 -26 20 -38 21 -323 21 -192 -1 -302 -4 -314 -11z
m473 -969 l0 -780 -160 0 -160 0 0 780 0 780 160 0 160 0 0 -780z m1846 744
c78 -37 87 -153 15 -201 -23 -16 -59 -19 -269 -23 l-244 -5 -24 -28 c-33 -38
-33 -96 0 -134 l24 -28 381 -5 381 -5 32 -33 c28 -28 33 -39 33 -82 0 -43 -5
-54 -33 -82 l-32 -33 -381 -5 -381 -5 -24 -28 c-16 -19 -24 -40 -24 -67 0 -27
8 -48 24 -67 l24 -28 381 -5 381 -5 32 -33 c28 -28 33 -39 33 -82 0 -43 -5
-54 -33 -82 l-32 -33 -381 -5 -381 -5 -24 -28 c-33 -38 -33 -96 0 -134 l24
-28 244 -5 c210 -4 246 -7 269 -23 72 -48 63 -164 -15 -201 -30 -14 -84 -16
-431 -16 -430 0 -439 -1 -463 -55 -7 -14 -12 -36 -12 -48 0 -12 52 -131 115
-265 63 -134 120 -263 126 -288 17 -66 6 -209 -20 -267 -11 -27 -26 -47 -32
-45 -6 2 -218 253 -470 558 l-459 555 0 665 0 665 108 42 107 42 698 0 c627 1
703 -1 733 -15z"/>
<path d="M2554 2731 c-30 -13 -64 -59 -64 -88 0 -52 45 -102 93 -103 92 -1
139 107 73 169 -26 24 -72 34 -102 22z"/>
<path d="M725 2951 c-64 -27 -81 -110 -32 -158 l27 -28 578 -3 c605 -3 617 -2
647 42 17 24 20 79 5 107 -27 49 -29 49 -637 48 -312 0 -577 -4 -588 -8z"/>
</g>
</svg>
