<?xml version="1.0" standalone="no"?>
<!DOCTYPE svg PUBLIC "-//W3C//DTD SVG 20010904//EN"
 "http://www.w3.org/TR/2001/REC-SVG-20010904/DTD/svg10.dtd">
<svg version="1.0" xmlns="http://www.w3.org/2000/svg"
 width="512.000000pt" height="512.000000pt" viewBox="0 0 512.000000 512.000000"
 preserveAspectRatio="xMidYMid meet">

<g transform="translate(0.000000,512.000000) scale(0.100000,-0.100000)"
fill="#000000" stroke="none">
<path d="M2493 4873 c-7 -2 -475 -123 -1039 -269 -1074 -276 -1064 -273 -1078
-330 -8 -32 18 -92 46 -104 13 -6 133 -39 268 -74 l245 -63 5 -549 5 -549 31
-65 c54 -113 140 -183 271 -220 77 -23 131 -25 154 -7 44 33 52 105 16 141
-12 12 -61 34 -107 49 -63 19 -93 35 -116 59 -61 64 -59 40 -62 586 -2 276 0
502 3 502 3 0 311 -79 686 -175 374 -96 694 -175 710 -175 17 0 337 79 712
175 374 96 682 175 684 175 2 0 3 -226 1 -502 -3 -546 -1 -522 -62 -586 -23
-24 -53 -40 -116 -59 -95 -30 -130 -57 -130 -102 0 -61 38 -104 92 -103 38 0
148 32 199 57 67 34 137 110 173 185 l31 65 5 549 5 549 183 47 182 46 0 -581
-1 -580 -52 -30 c-58 -34 -110 -102 -128 -168 -34 -125 38 -278 154 -330 39
-17 33 -39 -19 -67 -92 -48 -100 -76 -125 -440 -12 -180 -12 -186 8 -225 48
-93 100 -115 263 -115 165 0 223 26 266 121 17 38 17 53 5 227 -24 351 -33
384 -125 432 -52 28 -58 50 -18 67 115 52 187 205 153 330 -18 66 -70 134
-128 168 l-52 30 -1 650 c0 631 -1 651 -20 683 -11 18 -30 37 -42 42 -34 14
-2088 540 -2107 539 -9 0 -21 -3 -28 -6z m864 -403 c450 -116 823 -212 828
-214 16 -6 22 -4 -837 -224 l-816 -210 -814 209 c-447 115 -821 212 -831 216
-11 5 265 81 800 219 450 116 826 212 835 213 10 0 385 -94 835 -209z m1277
-1691 c14 -7 32 -27 41 -46 30 -63 -14 -133 -85 -133 -71 0 -115 70 -85 133
24 52 76 70 129 46z m16 -606 c0 -16 7 -107 15 -203 8 -96 11 -178 6 -183 -4
-4 -43 -7 -87 -5 l-79 3 1 30 c1 17 7 110 14 208 l13 177 58 0 c58 0 59 -1 59
-27z"/>
<path d="M2265 4415 c-132 -35 -248 -66 -258 -70 -21 -9 -47 -55 -47 -84 0
-36 22 -70 56 -86 33 -15 41 -14 274 46 l240 62 240 -62 c233 -60 241 -61 274
-46 73 35 73 144 -1 173 -45 18 -499 132 -520 131 -10 -1 -126 -29 -258 -64z"/>
<path d="M2425 3483 c-315 -43 -569 -225 -705 -506 -73 -151 -84 -204 -85
-387 0 -121 4 -170 19 -225 119 -443 541 -733 986 -675 310 40 564 223 700
503 65 136 81 198 87 353 4 100 2 150 -11 214 -75 369 -370 655 -738 715 -88
14 -185 17 -253 8z m275 -209 c36 -8 103 -33 150 -56 68 -34 103 -60 176 -133
79 -77 98 -103 137 -185 101 -211 102 -419 2 -625 -79 -165 -234 -302 -408
-362 -75 -26 -94 -28 -227 -28 -133 0 -152 2 -227 28 -271 93 -462 345 -480
632 -8 124 15 233 73 354 39 79 60 108 132 180 48 47 112 101 144 119 152 90
342 117 528 76z"/>
<path d="M2468 3117 c-14 -13 -29 -38 -33 -56 -5 -23 -17 -37 -43 -50 -109
-56 -165 -197 -128 -323 31 -106 123 -181 247 -198 33 -5 69 -16 79 -25 45
-41 28 -121 -30 -145 -43 -18 -85 2 -110 51 -25 47 -55 69 -98 69 -45 0 -92
-46 -92 -90 0 -63 63 -156 131 -190 27 -14 38 -29 48 -59 28 -94 154 -94 182
-1 9 30 22 46 53 64 150 88 180 289 64 421 -51 58 -99 82 -185 95 -71 10 -97
27 -109 75 -8 32 20 80 56 95 43 18 85 -2 110 -51 39 -75 108 -92 161 -40 33
33 37 71 15 125 -18 44 -76 108 -119 131 -25 13 -38 29 -46 56 -20 68 -103 92
-153 46z"/>
<path d="M273 1916 c-40 -35 -40 -107 0 -142 28 -24 29 -24 273 -24 l244 0 0
-505 0 -505 -234 0 c-129 0 -246 -4 -260 -10 -29 -11 -56 -57 -56 -95 0 -16
12 -38 29 -56 l29 -29 272 0 c304 0 320 3 377 75 l28 35 160 0 c235 0 268 -12
500 -180 246 -178 385 -231 605 -234 191 -1 355 45 497 142 34 23 311 247 615
497 607 500 603 496 596 592 -13 161 -275 269 -471 193 -32 -12 -174 -100
-315 -194 -141 -95 -262 -176 -269 -180 -8 -4 -19 7 -32 31 -25 48 -84 104
-141 134 -44 23 -54 24 -380 30 -187 3 -348 10 -365 16 -73 25 -128 59 -211
129 -95 80 -228 153 -319 174 -27 6 -146 14 -262 17 l-212 5 -27 35 c-52 68
-76 73 -376 73 l-267 0 -28 -24z m1148 -302 c83 -25 138 -56 216 -126 90 -79
160 -122 255 -156 72 -26 77 -27 403 -32 297 -4 334 -7 358 -23 40 -26 52 -64
33 -105 -9 -18 -27 -37 -42 -42 -15 -6 -173 -10 -379 -10 l-353 0 -31 -26
c-26 -21 -31 -33 -31 -68 0 -46 24 -82 63 -91 12 -3 193 -5 402 -3 344 3 383
5 413 21 18 10 199 131 403 268 203 138 385 257 404 265 19 7 57 14 85 14 53
0 124 -23 118 -39 -1 -5 -246 -210 -543 -455 -466 -385 -552 -452 -630 -491
-117 -58 -186 -75 -311 -75 -179 0 -290 40 -469 171 -303 220 -379 248 -672
249 l-123 0 0 385 0 385 188 0 c144 0 201 -4 243 -16z"/>
<path d="M521 1004 c-26 -21 -31 -33 -31 -69 0 -36 5 -48 31 -69 82 -69 194
18 145 112 -30 58 -94 70 -145 26z"/>
</g>
</svg>
