<?xml version="1.0" standalone="no"?>
<!DOCTYPE svg PUBLIC "-//W3C//DTD SVG 20010904//EN"
 "http://www.w3.org/TR/2001/REC-SVG-20010904/DTD/svg10.dtd">
<svg version="1.0" xmlns="http://www.w3.org/2000/svg"
 width="512.000000pt" height="512.000000pt" viewBox="0 0 512.000000 512.000000"
 preserveAspectRatio="xMidYMid meet">

<g transform="translate(0.000000,512.000000) scale(0.100000,-0.100000)"
fill="#000000" stroke="none">
<path d="M1629 3801 c-70 -27 -134 -78 -173 -135 -36 -54 -66 -139 -66 -190 0
-40 185 -608 218 -669 33 -61 90 -112 160 -145 63 -28 133 -35 552 -48 136 -4
239 -11 252 -18 27 -13 37 -66 16 -84 -9 -7 -126 -15 -318 -22 -364 -13 -455
-22 -512 -51 -125 -64 -144 -97 -268 -473 -96 -289 -102 -312 -96 -365 24
-213 248 -365 451 -307 32 10 132 60 223 113 140 82 166 101 179 131 18 42 10
83 -23 115 -53 53 -83 45 -284 -73 -106 -62 -133 -74 -180 -77 -69 -5 -113 20
-140 78 -17 40 -17 43 0 98 203 623 173 570 342 582 62 4 234 13 381 18 224 9
276 14 310 29 99 44 157 131 157 235 0 91 -17 135 -76 194 -75 75 -97 79 -479
93 -391 13 -396 14 -433 48 -40 37 -223 581 -211 626 17 64 97 114 164 103 46
-7 1610 -912 1658 -958 34 -33 37 -41 37 -91 0 -97 7 -91 -524 -398 -263 -152
-485 -285 -492 -295 -8 -10 -14 -39 -14 -63 0 -35 6 -49 29 -73 58 -58 56 -58
582 244 377 217 485 284 530 328 73 72 102 142 103 254 1 70 -3 89 -31 147
-43 91 -86 130 -248 224 -813 473 -1503 866 -1540 879 -62 21 -178 19 -236 -4z"/>
</g>
</svg>
